<?xml version="1.0" encoding="UTF-8" standalone="no"?>
<!DOCTYPE svg PUBLIC "-//W3C//DTD SVG 1.1//EN" "http://www.w3.org/Graphics/SVG/1.1/DTD/svg11.dtd">
<svg width="100%" height="100%" viewBox="0 0 2560 1600" version="1.1" xmlns="http://www.w3.org/2000/svg" xmlns:xlink="http://www.w3.org/1999/xlink" xml:space="preserve" xmlns:serif="http://www.serif.com/" style="fill-rule:evenodd;clip-rule:evenodd;stroke-linejoin:round;stroke-miterlimit:1.41421;">
    <g transform="matrix(1,0,0,1,103,1662)">
        <path d="M37.773,167.919C71.768,184.292 112.294,178.44 140.268,153.118C168.828,127.265 205.956,93.656 237.733,64.891C275.121,31.047 332.698,33.277 367.357,69.911C388.7,92.47 412.601,117.734 434.067,140.423C451.006,158.327 474.374,168.753 499.012,169.4C523.651,170.046 547.534,160.859 565.388,143.868C589.218,121.189 615.968,95.731 639.628,73.214C676.018,38.582 733.366,39.215 768.982,74.642C788.7,94.254 810.385,115.825 830.034,135.369C865.242,170.39 921.788,171.467 958.305,137.811C984.475,113.691 1014.65,85.878 1041.16,61.442C1059.36,44.67 1083.51,35.866 1108.23,36.988C1132.95,38.11 1156.2,49.065 1172.81,67.416C1192.08,88.722 1213.36,112.244 1232.91,133.852C1250.23,152.99 1274.74,164.049 1300.54,164.369C1326.35,164.69 1351.12,154.243 1368.91,135.541C1388.28,115.171 1409.29,93.081 1428.46,72.923C1445.69,54.804 1469.5,44.409 1494.5,44.095C1519.51,43.781 1543.58,53.575 1561.26,71.255C1584.67,94.666 1610.91,120.908 1634.28,144.276C1651.87,161.866 1675.79,171.653 1700.66,171.439C1725.54,171.225 1749.28,161.028 1766.57,143.139C1789.38,119.527 1814.92,93.096 1837.56,69.665C1872.76,33.234 1930.67,31.783 1967.65,66.406C1990.89,88.159 2016.91,112.528 2040.01,134.153C2076.33,168.154 2133,167.451 2168.46,132.559C2187.52,113.803 2208.45,93.213 2227.57,74.396C2263.42,39.122 2320.85,38.845 2357.04,73.773C2380.82,96.722 2407.63,122.604 2431.13,145.28C2466.03,178.968 2520.99,180.071 2557.22,147.812C2595.3,113.909 2641.84,72.465 2671.93,45.667C2691.7,28.067 2703,2.862 2703,-23.603C2703,-147.094 2703,-503 2703,-503L-609,-503C-609,-503 -434.726,-158.082 -383.189,-56.083C-373.987,-37.871 -359.036,-23.201 -340.652,-14.347C-265.807,21.702 -61.827,119.947 37.773,167.919Z" style="fill:rgb(67,0,158);"/>
    </g>
    <g transform="matrix(1,0,0,1,73,1339)">
        <path d="M37.773,167.919C71.768,184.292 112.294,178.44 140.268,153.118C168.828,127.265 205.956,93.656 237.733,64.891C275.121,31.047 332.698,33.277 367.357,69.911C388.7,92.47 412.601,117.734 434.067,140.423C451.006,158.327 474.374,168.753 499.012,169.4C523.651,170.046 547.534,160.859 565.388,143.868C589.218,121.189 615.968,95.731 639.628,73.214C676.018,38.582 733.366,39.215 768.982,74.642C788.7,94.254 810.385,115.825 830.034,135.369C865.242,170.39 921.788,171.467 958.305,137.811C984.475,113.691 1014.65,85.878 1041.16,61.442C1059.36,44.67 1083.51,35.866 1108.23,36.988C1132.95,38.11 1156.2,49.065 1172.81,67.416C1192.08,88.722 1213.36,112.244 1232.91,133.852C1250.23,152.99 1274.74,164.049 1300.54,164.369C1326.35,164.69 1351.12,154.243 1368.91,135.541C1388.28,115.171 1409.29,93.081 1428.46,72.923C1445.69,54.804 1469.5,44.409 1494.5,44.095C1519.51,43.781 1543.58,53.575 1561.26,71.255C1584.67,94.666 1610.91,120.908 1634.28,144.276C1651.87,161.866 1675.79,171.653 1700.66,171.439C1725.54,171.225 1749.28,161.028 1766.57,143.139C1789.38,119.527 1814.92,93.096 1837.56,69.665C1872.76,33.234 1930.67,31.783 1967.65,66.406C1990.89,88.159 2016.91,112.528 2040.01,134.153C2076.33,168.154 2133,167.451 2168.46,132.559C2187.52,113.803 2208.45,93.213 2227.57,74.396C2263.42,39.122 2320.85,38.845 2357.04,73.773C2380.82,96.722 2407.63,122.604 2431.13,145.28C2466.03,178.968 2520.99,180.071 2557.22,147.812C2595.3,113.909 2641.84,72.465 2671.93,45.667C2691.7,28.067 2703,2.862 2703,-23.603C2703,-147.094 2703,-503 2703,-503L-609,-503C-609,-503 -434.726,-158.082 -383.189,-56.083C-373.987,-37.871 -359.036,-23.201 -340.652,-14.347C-265.807,21.702 -61.827,119.947 37.773,167.919Z" style="fill:rgb(48,9,192);"/>
    </g>
    <g transform="matrix(1,0,0,1,43,1016)">
        <path d="M37.773,167.919C71.768,184.292 112.294,178.44 140.268,153.118C168.828,127.265 205.956,93.656 237.733,64.891C275.121,31.047 332.698,33.277 367.357,69.911C388.7,92.47 412.601,117.734 434.067,140.423C451.006,158.327 474.374,168.753 499.012,169.4C523.651,170.046 547.534,160.859 565.388,143.868C589.218,121.189 615.968,95.731 639.628,73.214C676.018,38.582 733.366,39.215 768.982,74.642C788.7,94.254 810.385,115.825 830.034,135.369C865.242,170.39 921.788,171.467 958.305,137.811C984.475,113.691 1014.65,85.878 1041.16,61.442C1059.36,44.67 1083.51,35.866 1108.23,36.988C1132.95,38.11 1156.2,49.065 1172.81,67.416C1192.08,88.722 1213.36,112.244 1232.91,133.852C1250.23,152.99 1274.74,164.049 1300.54,164.369C1326.35,164.69 1351.12,154.243 1368.91,135.541C1388.28,115.171 1409.29,93.081 1428.46,72.923C1445.69,54.804 1469.5,44.409 1494.5,44.095C1519.51,43.781 1543.58,53.575 1561.26,71.255C1584.67,94.666 1610.91,120.908 1634.28,144.276C1651.87,161.866 1675.79,171.653 1700.66,171.439C1725.54,171.225 1749.28,161.028 1766.57,143.139C1789.38,119.527 1814.92,93.096 1837.56,69.665C1872.76,33.234 1930.67,31.783 1967.65,66.406C1990.89,88.159 2016.91,112.528 2040.01,134.153C2076.33,168.154 2133,167.451 2168.46,132.559C2187.52,113.803 2208.45,93.213 2227.57,74.396C2263.42,39.122 2320.85,38.845 2357.04,73.773C2380.82,96.722 2407.63,122.604 2431.13,145.28C2466.03,178.968 2520.99,180.071 2557.22,147.812C2595.3,113.909 2641.84,72.465 2671.93,45.667C2691.7,28.067 2703,2.862 2703,-23.603C2703,-147.094 2703,-503 2703,-503L-609,-503C-609,-503 -434.726,-158.082 -383.189,-56.083C-373.987,-37.871 -359.036,-23.201 -340.652,-14.347C-265.807,21.702 -61.827,119.947 37.773,167.919Z" style="fill:rgb(12,21,228);"/>
    </g>
    <g transform="matrix(1,0,0,1,13,693)">
        <path d="M37.773,167.919C71.768,184.292 112.294,178.44 140.268,153.118C168.828,127.265 205.956,93.656 237.733,64.891C275.121,31.047 332.698,33.277 367.357,69.911C388.7,92.47 412.601,117.734 434.067,140.423C451.006,158.327 474.374,168.753 499.012,169.4C523.651,170.046 547.534,160.859 565.388,143.868C589.218,121.189 615.968,95.731 639.628,73.214C676.018,38.582 733.366,39.215 768.982,74.642C788.7,94.254 810.385,115.825 830.034,135.369C865.242,170.39 921.788,171.467 958.305,137.811C984.475,113.691 1014.65,85.878 1041.16,61.442C1059.36,44.67 1083.51,35.866 1108.23,36.988C1132.95,38.11 1156.2,49.065 1172.81,67.416C1192.08,88.722 1213.36,112.244 1232.91,133.852C1250.23,152.99 1274.74,164.049 1300.54,164.369C1326.35,164.69 1351.12,154.243 1368.91,135.541C1388.28,115.171 1409.29,93.081 1428.46,72.923C1445.69,54.804 1469.5,44.409 1494.5,44.095C1519.51,43.781 1543.58,53.575 1561.26,71.255C1584.67,94.666 1610.91,120.908 1634.28,144.276C1651.87,161.866 1675.79,171.653 1700.66,171.439C1725.54,171.225 1749.28,161.028 1766.57,143.139C1789.38,119.527 1814.92,93.096 1837.56,69.665C1872.76,33.234 1930.67,31.783 1967.65,66.406C1990.89,88.159 2016.91,112.528 2040.01,134.153C2076.33,168.154 2133,167.451 2168.46,132.559C2187.52,113.803 2208.45,93.213 2227.57,74.396C2263.42,39.122 2320.85,38.845 2357.04,73.773C2380.82,96.722 2407.63,122.604 2431.13,145.28C2466.03,178.968 2520.99,180.071 2557.22,147.812C2595.3,113.909 2641.84,72.465 2671.93,45.667C2691.7,28.067 2703,2.862 2703,-23.603C2703,-147.094 2703,-503 2703,-503L-609,-503C-609,-503 -434.726,-158.082 -383.189,-56.083C-373.987,-37.871 -359.036,-23.201 -340.652,-14.347C-265.807,21.702 -61.827,119.947 37.773,167.919Z" style="fill:rgb(0,61,255);"/>
    </g>
    <g transform="matrix(1,0,0,1,13,253)">
        <path d="M37.773,167.919C71.768,184.292 112.294,178.44 140.268,153.118C168.828,127.265 205.956,93.656 237.733,64.891C275.121,31.047 332.698,33.277 367.357,69.911C388.7,92.47 412.601,117.734 434.067,140.423C451.006,158.327 474.374,168.753 499.012,169.4C523.651,170.046 547.534,160.859 565.388,143.868C589.218,121.189 615.968,95.731 639.628,73.214C676.018,38.582 733.366,39.215 768.982,74.642C788.7,94.254 810.385,115.825 830.034,135.369C865.242,170.39 921.788,171.467 958.305,137.811C984.475,113.691 1014.65,85.878 1041.16,61.442C1059.36,44.67 1083.51,35.866 1108.23,36.988C1132.95,38.11 1156.2,49.065 1172.81,67.416C1192.08,88.722 1213.36,112.244 1232.91,133.852C1250.23,152.99 1274.74,164.049 1300.54,164.369C1326.35,164.69 1351.12,154.243 1368.91,135.541C1388.28,115.171 1409.29,93.081 1428.46,72.923C1445.69,54.804 1469.5,44.409 1494.5,44.095C1519.51,43.781 1543.58,53.575 1561.26,71.255C1584.67,94.666 1610.91,120.908 1634.28,144.276C1651.87,161.866 1675.79,171.653 1700.66,171.439C1725.54,171.225 1749.28,161.028 1766.57,143.139C1789.38,119.527 1814.92,93.096 1837.56,69.665C1872.76,33.234 1930.67,31.783 1967.65,66.406C1990.89,88.159 2016.91,112.528 2040.01,134.153C2076.33,168.154 2133,167.451 2168.46,132.559C2187.52,113.803 2208.45,93.213 2227.57,74.396C2263.42,39.122 2320.85,38.845 2357.04,73.773C2380.82,96.722 2407.63,122.604 2431.13,145.28C2466.03,178.968 2520.99,180.071 2557.22,147.812C2595.3,113.909 2641.84,72.465 2671.93,45.667C2691.7,28.067 2703,2.862 2703,-23.603C2703,-147.094 2703,-503 2703,-503L-609,-503C-609,-503 -434.726,-158.082 -383.189,-56.083C-373.987,-37.871 -359.036,-23.201 -340.652,-14.347C-265.807,21.702 -61.827,119.947 37.773,167.919Z" style="fill:rgb(0,138,255);"/>
    </g>
    <g transform="matrix(1,0,0,1,13,33)">
        <path d="M37.773,167.919C71.768,184.292 112.294,178.44 140.268,153.118C168.828,127.265 205.956,93.656 237.733,64.891C275.121,31.047 332.698,33.277 367.357,69.911C388.7,92.47 412.601,117.734 434.067,140.423C451.006,158.327 474.374,168.753 499.012,169.4C523.651,170.046 547.534,160.859 565.388,143.868C589.218,121.189 615.968,95.731 639.628,73.214C676.018,38.582 733.366,39.215 768.982,74.642C788.7,94.254 810.385,115.825 830.034,135.369C865.242,170.39 921.788,171.467 958.305,137.811C984.475,113.691 1014.65,85.878 1041.16,61.442C1059.36,44.67 1083.51,35.866 1108.23,36.988C1132.95,38.11 1156.2,49.065 1172.81,67.416C1192.08,88.722 1213.36,112.244 1232.91,133.852C1250.23,152.99 1274.74,164.049 1300.54,164.369C1326.35,164.69 1351.12,154.243 1368.91,135.541C1388.28,115.171 1409.29,93.081 1428.46,72.923C1445.69,54.804 1469.5,44.409 1494.5,44.095C1519.51,43.781 1543.58,53.575 1561.26,71.255C1584.67,94.666 1610.91,120.908 1634.28,144.276C1651.87,161.866 1675.79,171.653 1700.66,171.439C1725.54,171.225 1749.28,161.028 1766.57,143.139C1789.38,119.527 1814.92,93.096 1837.56,69.665C1872.76,33.234 1930.67,31.783 1967.65,66.406C1990.89,88.159 2016.91,112.528 2040.01,134.153C2076.33,168.154 2133,167.451 2168.46,132.559C2187.52,113.803 2208.45,93.213 2227.57,74.396C2263.42,39.122 2320.85,38.845 2357.04,73.773C2380.82,96.722 2407.63,122.604 2431.13,145.28C2466.03,178.968 2520.99,180.071 2557.22,147.812C2595.3,113.909 2641.84,72.465 2671.93,45.667C2691.7,28.067 2703,2.862 2703,-23.603C2703,-147.094 2703,-503 2703,-503L-609,-503C-609,-503 -434.726,-158.082 -383.189,-56.083C-373.987,-37.871 -359.036,-23.201 -340.652,-14.347C-265.807,21.702 -61.827,119.947 37.773,167.919Z" style="fill:rgb(0,210,255);"/>
    </g>
</svg>
