<?xml version="1.0"?>
<svg xmlns="http://www.w3.org/2000/svg" id="Layer_1" height="512px" viewBox="0 0 512 512" width="512px" data-name="Layer 1"><g><path d="m420.534 460h5.777a6 6 0 0 0 0-12h-5.777c-4.656 0-8.443-3.344-8.443-8s3.787-8 8.443-8h8.775a22.5 22.5 0 1 1 0 45h-90.658a6 6 0 0 0 0 12h90.658a34.5 34.5 0 1 0 0-69h-8.775a20 20 0 1 0 0 40z" data-original="#000000" class="active-path" data-old_color="#000000" fill="#FFFCFC"/><path d="m305.324 477h-26a6 6 0 0 0 0 12h26a6 6 0 1 0 0-12z" data-original="#000000" class="active-path" data-old_color="#000000" fill="#FFFCFC"/><path d="m82.691 489h90.658a6 6 0 0 0 0-12h-90.658a22.5 22.5 0 1 1 0-45h8.775c4.656 0 8.443 3.345 8.443 8s-3.787 8-8.443 8h-5.777a6 6 0 1 0 0 12h5.777a20 20 0 1 0 0-40h-8.775a34.5 34.5 0 1 0 0 69z" data-original="#000000" class="active-path" data-old_color="#000000" fill="#FFFCFC"/><path d="m232.673 477h-26a6 6 0 1 0 0 12h26a6 6 0 0 0 0-12z" data-original="#000000" class="active-path" data-old_color="#000000" fill="#FFFCFC"/><path d="m270 37.163a14 14 0 0 0 -28 0v24.837h28z" data-original="#000000" class="active-path" data-old_color="#000000" fill="#FFFCFC"/><path d="m242 74h28v66h-28z" data-original="#000000" class="active-path" data-old_color="#000000" fill="#FFFCFC"/><path d="m160 411.3v40.024a6 6 0 0 0 12 0v-40.024c0-.215-.39-.3-.412-.3h13.891c-.022 0-.479.08-.479.3v40.024a6 6 0 0 0 12 0v-40.024c0-.215.433-.3.41-.3h13.89c-.022 0-.3.08-.3.3v40.024a6 6 0 0 0 12 0v-40.024c0-.215.254-.3.232-.3h13.892c-.022 0-.124.08-.124.3v40.024a6 6 0 0 0 12 0v-40.024a1.252 1.252 0 0 1 .054-.3h13.892a1.252 1.252 0 0 1 .054.3v40.024a6 6 0 0 0 12 0v-40.024c0-.215-.1-.3-.124-.3h13.892c-.022 0 .232.08.232.3v40.024a6 6 0 0 0 12 0v-40.024c0-.215-.279-.3-.3-.3h13.89c-.023 0 .41.08.41.3v40.024a6 6 0 0 0 12 0v-40.024c0-.215-.457-.3-.479-.3h13.891c-.022 0-.412.08-.412.3v40.024a6 6 0 0 0 12 0v-40.024c0-.215.365-.3.343-.3h7.657v-7h-208v7h7.657c-.022 0 .343.08.343.3z" data-original="#000000" class="active-path" data-old_color="#000000" fill="#FFFCFC"/><path d="m360 365.473a6.242 6.242 0 0 0 -6.534-6.473h-194.932a6.242 6.242 0 0 0 -6.534 6.473v21.527h208z" data-original="#000000" class="active-path" data-old_color="#000000" fill="#FFFCFC"/><path d="m251 152h10v195h-10z" data-original="#000000" class="active-path" data-old_color="#000000" fill="#FFFCFC"/></g> </svg>
