<?xml version="1.0"?>
<svg xmlns="http://www.w3.org/2000/svg" id="Layer_1" height="512px" viewBox="0 0 512 512" width="512px" data-name="Layer 1" class=""><g><path d="m204 338.369v102.631h104v-128h-77.973c-14.257 0-26.027 11.112-26.027 25.369zm81.685 73.631h-47.685a6 6 0 0 1 0-12h47.69a6 6 0 0 1 0 12zm6-32a6 6 0 0 1 -6 6h-59.37a6 6 0 0 1 0-12h59.37a6 6 0 0 1 6 6z" data-original="#000000" class="active-path" data-old_color="#000000" fill="#FFFCFC"/><path d="m178.864 55h10.136v-17h-10.136c-6.414 0-10.723 3.356-10.723 8.5s4.309 8.5 10.723 8.5z" data-original="#000000" class="active-path" data-old_color="#000000" fill="#FFFCFC"/><path d="m347 272.27c0-45.38-7.918-96.27-21.553-133.27h-41.447v24.334c0 25.02-17.032 47.435-41.2 54.509a125.874 125.874 0 0 0 -64.29 44.219 123.568 123.568 0 0 0 -25.51 75.316v146.622h194zm-27 175.105c0 3.314-2.857 5.625-6.17 5.625h-115.66c-3.313 0-6.17-2.311-6.17-5.625v-109.006c0-20.869 17.153-37.369 38.027-37.369h83.8c3.313 0 6.17 2.2 6.17 5.513z" data-original="#000000" class="active-path" data-old_color="#000000" fill="#FFFCFC"/><path d="m201 28h158v37h-158z" data-original="#000000" class="active-path" data-old_color="#000000" fill="#FFFCFC"/><path d="m295 77h18v21h-18z" data-original="#000000" class="active-path" data-old_color="#000000" fill="#FFFCFC"/><path d="m273 110h61v17h-61z" data-original="#000000" class="active-path" data-old_color="#000000" fill="#FFFCFC"/><path d="m200.635 139.11a5.966 5.966 0 0 0 2.621-.606c39.2-19.078 37.89-65.483 37.814-67.449l-11.991.457c.015.4 1.164 40.511-31.075 56.2a6 6 0 0 0 2.631 11.4z" data-original="#000000" class="active-path" data-old_color="#000000" fill="#FFFCFC"/></g> </svg>
