<?xml version="1.0"?>
<svg xmlns="http://www.w3.org/2000/svg" id="Layer_1" height="512px" viewBox="0 0 512 512" width="512px" data-name="Layer 1"><g><path d="m62 364.568a80.365 80.365 0 0 0 40.061 69.59l-17.725 17.725a6 6 0 1 0 8.484 8.484l19.132-19.132a5.941 5.941 0 0 0 1.188-1.735 80.145 80.145 0 0 0 29.223 5.5h227.274a80.128 80.128 0 0 0 30.336-5.938c.027.029.047.063.075.092l19.132 19.131a6 6 0 1 0 8.484-8.486l-16.4-16.4a80.373 80.373 0 0 0 38.736-68.831v-37.568h-388z" data-original="#000000" class="active-path" data-old_color="#FDFBFB" fill="#FFFCFC"/><path d="m474.073 276h-436.146a19.5 19.5 0 0 0 0 39h436.146a19.5 19.5 0 0 0 0-39z" data-original="#000000" class="active-path" data-old_color="#FDFBFB" fill="#FFFCFC"/><path d="m193 177.339a6 6 0 0 0 -12 0v6.493a6 6 0 0 0 12 0z" data-original="#000000" class="active-path" data-old_color="#FDFBFB" fill="#FFFCFC"/><path d="m171 177.339a6 6 0 0 0 -12 0v6.493a6 6 0 0 0 12 0z" data-original="#000000" class="active-path" data-old_color="#FDFBFB" fill="#FFFCFC"/><path d="m214 177.339a6 6 0 0 0 -12 0v6.493a6 6 0 0 0 12 0z" data-original="#000000" class="active-path" data-old_color="#FDFBFB" fill="#FFFCFC"/><path d="m187 199.478a6 6 0 0 0 -6 6v6.493a6 6 0 0 0 12 0v-6.493a6 6 0 0 0 -6-6z" data-original="#000000" class="active-path" data-old_color="#FDFBFB" fill="#FFFCFC"/><path d="m165 199.478a6 6 0 0 0 -6 6v6.493a6 6 0 0 0 12 0v-6.493a6 6 0 0 0 -6-6z" data-original="#000000" class="active-path" data-old_color="#FDFBFB" fill="#FFFCFC"/><path d="m208 199.478a6 6 0 0 0 -6 6v6.493a6 6 0 0 0 12 0v-6.493a6 6 0 0 0 -6-6z" data-original="#000000" class="active-path" data-old_color="#FDFBFB" fill="#FFFCFC"/><path d="m115 94.3a32.5 32.5 0 0 1 65 0v12.7h12v-12.7a44.5 44.5 0 0 0 -89 0v176.7h12z" data-original="#000000" class="active-path" data-old_color="#FDFBFB" fill="#FFFCFC"/><path d="m153 137h68v14h-68z" data-original="#000000" class="active-path" data-old_color="#FDFBFB" fill="#FFFCFC"/><path d="m171 113h32v12h-32z" data-original="#000000" class="active-path" data-old_color="#FDFBFB" fill="#FFFCFC"/></g> </svg>
