<?xml version="1.0"?>
<svg xmlns="http://www.w3.org/2000/svg" height="512px" viewBox="-5 0 480 480.02416" width="512px" class=""><g><path d="m469.28125 183.664062c-8.339844-98.699218-87.492188-176.527343-186.320312-183.199218-55.246094-3.785156-109.566407 15.683594-149.832032 53.703125-39.453125 37.109375-62.246094 88.582031-63.199218 142.734375l-65.757813 72.363281c-4.2617188 4.6875-5.355469 11.445313-2.789063 17.234375 2.5625 5.792969 8.300782 9.527344 14.636719 9.523438h37.910157v48c.035156 30.914062 25.085937 55.964843 56 56h64v72c0 4.417968 3.582031 8 8 8h224c4.417968 0 8-3.582032 8-8v-133.214844c39.84375-41.386719 60-97.886719 55.351562-155.144532zm-69.015625 146.222657v.050781c-11.164063 11.195312-23.722656 20.914062-37.359375 28.917969l8.097656 13.800781c9.480469-5.613281 18.488282-11.992188 26.925782-19.082031v110.449219h-208v-64c0-8.835938-7.164063-16-16-16h-64c-22.078126-.027344-39.972657-17.917969-40-40v-56c0-4.417969-3.582032-8-8-8h-45.910157l67.832031-74.617188c1.339844-1.472656 2.078126-3.390625 2.078126-5.382812 0-50.882813 21.070312-99.5 58.203124-134.289063 37.136719-34.789063 87.019532-52.644531 137.796876-49.328125 72.023437 4.71875 134.636718 51.105469 160.125 118.632812 25.488281 67.527344 9.140624 143.71875-41.804688 194.847657zm0 0" data-original="#000000" class="active-path" data-old_color="#000000" fill="#FDF6F6"/><path d="m261.929688 40.023438h16v32h-16zm0 0" data-original="#000000" class="active-path" data-old_color="#000000" fill="#FDF6F6"/><path d="m191.007812 63.320312 13.855469-8 16 27.710938-13.855469 8zm0 0" data-original="#000000" class="active-path" data-old_color="#000000" fill="#FDF6F6"/><path d="m141.21875 118.957031 7.996094-13.859375 27.722656 16.003906-8 13.855469zm0 0" data-original="#000000" class="active-path" data-old_color="#000000" fill="#FDF6F6"/><path d="m125.929688 176.023438h32v16h-32zm0 0" data-original="#000000" class="active-path" data-old_color="#000000" fill="#FDF6F6"/><path d="m141.21875 249.097656 27.71875-16 8 13.855469-27.722656 16.003906zm0 0" data-original="#000000" class="active-path" data-old_color="#000000" fill="#FDF6F6"/><path d="m362.925781 246.960938 8-13.859376 27.71875 16.003907-7.996093 13.855469zm0 0" data-original="#000000" class="active-path" data-old_color="#000000" fill="#FDF6F6"/><path d="m381.929688 176.023438h32v16h-32zm0 0" data-original="#000000" class="active-path" data-old_color="#000000" fill="#FDF6F6"/><path d="m362.917969 121.09375 27.722656-16 7.996094 13.855469-27.71875 16.003906zm0 0" data-original="#000000" class="active-path" data-old_color="#000000" fill="#FDF6F6"/><path d="m318.996094 83.03125 16-27.714844 13.855468 8-15.996093 27.710938zm0 0" data-original="#000000" class="active-path" data-old_color="#000000" fill="#FDF6F6"/><path d="m365.929688 200.023438v-32c0-2.121094-.84375-4.15625-2.34375-5.65625l-5.65625-5.65625v-20.6875c0-3.671876-2.5-6.871094-6.0625-7.757813l-25.9375-6.488281v-9.753906c0-2.121094-.84375-4.15625-2.34375-5.65625l-8-8c-1.5-1.5-3.535157-2.34375-5.65625-2.34375h-24c-2.121094 0-4.15625.84375-5.65625 2.34375l-10.34375 10.34375-10.34375-10.34375c-1.5-1.5-3.535157-2.34375-5.65625-2.34375h-24c-2.121094 0-4.15625.84375-5.65625 2.34375l-8 8c-1.5 1.5-2.34375 3.535156-2.34375 5.65625v9.753906l-25.933594 6.488281c-3.5625.886719-6.066406 4.085937-6.066406 7.757813v20.6875l-5.65625 5.65625c-1.5 1.5-2.34375 3.535156-2.34375 5.65625v32c0 3.03125 1.710937 5.804687 4.425781 7.160156l11.574219 5.785156v19.054688c0 2.121093.84375 4.15625 2.34375 5.65625l8 8c1.5 1.5 3.535156 2.34375 5.65625 2.34375h11.722656l13.597656 20.441406c1.488281 2.230468 3.996094 3.566406 6.679688 3.558594h16c2.121093 0 4.15625-.84375 5.65625-2.34375l10.34375-10.34375 10.34375 10.34375c1.5 1.5 3.535156 2.34375 5.65625 2.34375h16c2.675781 0 5.171874-1.335938 6.65625-3.558594l13.625-20.441406h11.71875c2.121093 0 4.15625-.84375 5.65625-2.34375l8-8c1.5-1.5 2.34375-3.535157 2.34375-5.65625v-19.054688l11.578124-5.785156c2.710938-1.355469 4.425782-4.128906 4.421876-7.160156zm-115.3125 56h-8.40625l-13.601563-20.4375c-1.488281-2.234376-3.996094-3.570313-6.679687-3.5625h-12.6875l-3.3125-3.3125v-17.375l13.65625-13.65625c1.5-1.5 2.34375-3.535157 2.34375-5.65625v-8h-16v4.6875l-9.597657 9.601562-6.402343-3.199219v-23.777343l3.3125-3.3125h12.6875v-16h-8v-9.75l21.542968-5.394532 10.457032 10.457032v12.6875h16v-16c0-2.121094-.84375-4.15625-2.34375-5.65625l-13.65625-13.65625v-9.375l3.3125-3.3125h17.375l11.3125 11.3125v121.375zm99.3125-60.941407-6.398438 3.199219-9.601562-9.601562v-4.65625h-16v8c0 2.121093.84375 4.15625 2.34375 5.65625l13.65625 13.65625v17.375l-3.3125 3.3125h-12.6875c-2.671876 0-5.171876 1.335937-6.65625 3.5625l-13.621094 20.4375h-8.410156l-11.3125-11.3125v-121.375l11.3125-11.3125h17.375l3.3125 3.3125v9.375l-13.65625 13.65625c-1.5 1.5-2.34375 3.535156-2.34375 5.65625v16h16v-12.6875l10.457031-10.457032 21.542969 5.394532v9.75h-8v16h12.6875l3.3125 3.3125zm0 0" data-original="#000000" class="active-path" data-old_color="#000000" fill="#FDF6F6"/><path d="m293.929688 212.710938-5.65625 5.65625 11.3125 11.3125 8-8c1.5-1.5 2.34375-3.535157 2.34375-5.65625v-24h-16zm0 0" data-original="#000000" class="active-path" data-old_color="#000000" fill="#FDF6F6"/><path d="m245.929688 192.023438h-16v24c0 2.121093.84375 4.15625 2.34375 5.65625l8 8 11.3125-11.3125-5.65625-5.65625zm0 0" data-original="#000000" class="active-path" data-old_color="#000000" fill="#FDF6F6"/><path d="m213.929688 288.023438v16h16v24c0 22.09375 17.910156 40 40 40 22.09375 0 40-17.90625 40-40v-24h16v-16zm80 40c0 13.253906-10.746094 24-24 24-13.253907 0-24-10.746094-24-24v-24h48zm0 0" data-original="#000000" class="active-path" data-old_color="#000000" fill="#FDF6F6"/></g> </svg>
