<?xml version="1.0"?>
<svg xmlns="http://www.w3.org/2000/svg" id="Layer_1" height="512px" viewBox="0 0 512 512" width="512px" data-name="Layer 1"><g><circle cx="88.5" cy="402.253" r="15.857" data-original="#000000" class="active-path" data-old_color="#000000" fill="#FFFCFC"/><path d="m112.461 114.312a46.948 46.948 0 0 1 17.415-17.412 46.948 46.948 0 0 1 -17.415-17.415 46.934 46.934 0 0 1 -17.415 17.415 46.934 46.934 0 0 1 17.415 17.412z" data-original="#000000" class="active-path" data-old_color="#000000" fill="#FFFCFC"/><path d="m85.23 237.719-51.915-71.068-12.011 10.51 51.491 70.487z" data-original="#000000" class="active-path" data-old_color="#000000" fill="#FFFCFC"/><path d="m256 126.471a64.924 64.924 0 0 0 46.135-19.282 65.333 65.333 0 0 0 18.965-40.189h-8.4a57.008 57.008 0 0 1 -56.7 51h-.007a56.786 56.786 0 0 1 -56.7-51h-8.4a65.31 65.31 0 0 0 18.962 40.18 64.933 64.933 0 0 0 46.145 19.291z" data-original="#000000" class="active-path" data-old_color="#000000" fill="#FFFCFC"/><path d="m256 106a44.718 44.718 0 0 0 31.83-13.175 43.931 43.931 0 0 0 12.784-25.825h-89.222a45.059 45.059 0 0 0 44.608 39z" data-original="#000000" class="active-path" data-old_color="#000000" fill="#FFFCFC"/><path d="m439.205 247.643 51.491-70.487-12.008-10.508-51.917 71.069z" data-original="#000000" class="active-path" data-old_color="#000000" fill="#FFFCFC"/><path d="m364.558 310.675a55.8 55.8 0 0 1 23.932 23.933 55.807 55.807 0 0 1 23.933-23.933 55.82 55.82 0 0 1 -23.933-23.934 55.813 55.813 0 0 1 -23.932 23.934z" data-original="#000000" class="active-path" data-old_color="#000000" fill="#FFFCFC"/><path d="m128.029 203.531a6.009 6.009 0 0 1 6.366-.724 5.927 5.927 0 0 1 3.378 5.39l-1.658 226.803h239.769l-.727-99.436a43.583 43.583 0 0 0 -32.209-18.923 6 6 0 0 1 0-11.944 43.669 43.669 0 0 0 31.852-18.473l-.577-77.944a6 6 0 0 1 9.743-4.733l33.415 26.668 52.237-71.526-100.266-87.764a15.7 15.7 0 0 0 -10.303-3.925h-25.922a77.666 77.666 0 0 1 -22.506 48.665 76.841 76.841 0 0 1 -109.242 0 77.676 77.676 0 0 1 -22.506-48.665h-25.918a15.7 15.7 0 0 0 -10.307 3.925l-12.78 11.227a34.747 34.747 0 0 0 20.1 8.765 6 6 0 0 1 0 11.955 34.815 34.815 0 0 0 -31.531 31.528 6 6 0 0 1 -11.951 0 34.758 34.758 0 0 0 -10.877-22.261l-53.228 46.575 52.235 71.5z" data-original="#000000" class="active-path" data-old_color="#000000" fill="#FFFCFC"/><path d="m427.618 435.794a35.2 35.2 0 0 1 9.169 9.169 35.188 35.188 0 0 1 9.169-9.169 35.184 35.184 0 0 1 -9.169-9.168 35.184 35.184 0 0 1 -9.169 9.168z" data-original="#000000" class="active-path" data-old_color="#000000" fill="#FFFCFC"/></g> </svg>
