<?xml version="1.0"?>
<svg xmlns="http://www.w3.org/2000/svg" id="Layer_1" height="512px" viewBox="0 0 512 512" width="512px" data-name="Layer 1"><g><path d="m236 140h40v34h-40z" data-original="#000000" class="active-path" data-old_color="#000000" fill="#FFFCFC"/><path d="m216.408 128h79.184a27.045 27.045 0 0 0 26.308-21h-131.8a27.045 27.045 0 0 0 26.308 21z" data-original="#000000" class="active-path" data-old_color="#000000" fill="#FFFCFC"/><path d="m236 186h40v46h-40z" data-original="#000000" class="active-path" data-old_color="#000000" fill="#FFFCFC"/><path d="m236 458.682a20 20 0 1 0 40 0v-214.682h-40z" data-original="#000000" class="active-path" data-old_color="#000000" fill="#FFFCFC"/><path d="m147 95h218v-62h-218zm20.543-47h177.963a6 6 0 0 1 0 12h-177.963a6 6 0 0 1 0-12zm0 20h177.963a6 6 0 0 1 0 12h-177.963a6 6 0 0 1 0-12z" data-original="#000000" class="active-path" data-old_color="#000000" fill="#FFFCFC"/></g> </svg>
