<?xml version="1.0"?>
<svg xmlns="http://www.w3.org/2000/svg" id="Layer_1" height="512px" viewBox="0 0 512 512" width="512px" data-name="Layer 1" class=""><g><path d="m228 187h54v47h-54z" data-original="#000000" class="active-path" data-old_color="#000000" fill="#FFFCFC"/><path d="m370 137.776v-73.776h-230v73.776c0 20.324 16.3 37.224 36.629 37.224h156.742c20.329 0 36.629-16.9 36.629-37.224z" data-original="#000000" class="active-path" data-old_color="#000000" fill="#FFFCFC"/><path d="m170 466.1v17.9h172v-17.9a11.966 11.966 0 0 0 -11.841-12.1h-148.318a11.966 11.966 0 0 0 -11.841 12.1z" data-original="#000000" class="active-path" data-old_color="#000000" fill="#FFFCFC"/><path d="m127 28h256v24h-256z" data-original="#000000" class="active-path" data-old_color="#000000" fill="#FFFCFC"/><path d="m123 246h266v20h-266z" data-original="#000000" class="active-path" data-old_color="#000000" fill="#FFFCFC"/><path d="m132.548 278a122.59 122.59 0 0 0 244.9 0zm88.7 70.35a5.992 5.992 0 0 1 -6.976 4.83c-20.526-3.732-30.98-15.146-36.136-24.064a48.107 48.107 0 0 1 -6.283-18.933 6 6 0 0 1 11.97-.851c.093 1.161 2.509 26.571 32.6 32.042a6 6 0 0 1 4.83 6.976z" data-original="#000000" class="active-path" data-old_color="#000000" fill="#FFFCFC"/><path d="m289.968 402.238a134.689 134.689 0 0 1 -69.937-.009l2.318 11.577c2.994 14.952 3.307 16.49-.29 25.16-.371.892-.792 2.034-1.26 3.034h68.4c-.468-1-.888-2.142-1.259-3.034-3.6-8.67-3.284-10.209-.292-25.159z" data-original="#000000" class="active-path" data-old_color="#000000" fill="#FFFCFC"/></g> </svg>
