<?xml version="1.0"?>
<svg xmlns="http://www.w3.org/2000/svg" id="Layer_1" height="512px" viewBox="0 0 512 512" width="512px" data-name="Layer 1" class=""><g><path d="m351.884 368h-55.884v74h81v-48.333c0-14.092-11.024-25.667-25.116-25.667z" data-original="#000000" class="active-path" data-old_color="#000000" fill="#FFFCFC"/><path d="m294 215.407v2.593h28.211a102.506 102.506 0 0 1 27.789 3.974v-6.567a13.316 13.316 0 0 0 -13.257-13.407h-29.064a13.68 13.68 0 0 0 -13.679 13.407z" data-original="#000000" class="active-path" data-old_color="#000000" fill="#FFFCFC"/><path d="m322.211 230h-42.438a15.165 15.165 0 0 0 -15.034 14.841l-3.139 221.986a14.917 14.917 0 0 0 15.033 15.173h121.422a14.811 14.811 0 0 0 14.945-14.843v-146.151c0-50.106-40.677-91.006-90.789-91.006zm66.789 218.473a5.251 5.251 0 0 1 -5.561 5.527h-93c-3.314 0-6.435-2.213-6.435-5.527v-86.362a6.482 6.482 0 0 1 6.431-6.111h61.449c20.708 0 37.116 16.958 37.116 37.667z" data-original="#000000" class="active-path" data-old_color="#000000" fill="#FFFCFC"/><path d="m444.28 441h-19.28v26h38v-6.9a18.738 18.738 0 0 0 -18.72-19.1z" data-original="#000000" class="active-path" data-old_color="#000000" fill="#FFFCFC"/><path d="m444.28 492.188a18.77 18.77 0 0 0 18.22-13.188h-36.43a18.772 18.772 0 0 0 18.21 13.188z" data-original="#000000" class="active-path" data-old_color="#000000" fill="#FFFCFC"/><path d="m121 56.094a24.5 24.5 0 1 1 49 0v75.733a38.286 38.286 0 0 0 38.612 38.173h88.858c9.174 0 16.53 7.9 16.53 17.071v8.929h12v-8.929c0-15.79-12.739-29.071-28.53-29.071h-88.858a26.274 26.274 0 0 1 -26.612-26.173v-75.733a36.5 36.5 0 1 0 -73 0v323.906h12z" data-original="#000000" class="active-path" data-old_color="#000000" fill="#FFFCFC"/><path d="m179.74 429h-127.38c-1.334 3-2.514 6-3.516 9h134.412c-1.002-3-2.182-6-3.516-9z" data-original="#000000" class="active-path" data-old_color="#000000" fill="#FFFCFC"/><path d="m136.349 386h-40.6c-13.739 0-27.558 14-37.3 31h115.2c-9.742-17-23.561-31-37.3-31z" data-original="#000000" class="active-path" data-old_color="#000000" fill="#FFFCFC"/></g> </svg>
